<mxfile host="app.diagrams.net" agent="Mozilla/5.0 (Windows NT 10.0; Win64; x64) AppleWebKit/537.36 (KHTML, like Gecko) Chrome/135.0.0.0 Safari/537.36" version="26.2.12">
  <diagram name="第 1 页" id="qE1U5kidIyP4kl9Y2REw">
    <mxGraphModel dx="743" dy="494" grid="1" gridSize="10" guides="1" tooltips="1" connect="1" arrows="1" fold="1" page="1" pageScale="1" pageWidth="827" pageHeight="1169" math="0" shadow="0">
      <root>
        <mxCell id="0" />
        <mxCell id="1" parent="0" />
        <mxCell id="VlY9a2Zy-96YYWf2oBim-6" value="" style="edgeStyle=orthogonalEdgeStyle;rounded=0;orthogonalLoop=1;jettySize=auto;html=1;" edge="1" parent="1" source="VlY9a2Zy-96YYWf2oBim-1" target="VlY9a2Zy-96YYWf2oBim-5">
          <mxGeometry relative="1" as="geometry" />
        </mxCell>
        <mxCell id="VlY9a2Zy-96YYWf2oBim-8" style="edgeStyle=orthogonalEdgeStyle;rounded=0;orthogonalLoop=1;jettySize=auto;html=1;exitX=0.5;exitY=0;exitDx=0;exitDy=0;" edge="1" parent="1" source="VlY9a2Zy-96YYWf2oBim-1" target="VlY9a2Zy-96YYWf2oBim-2">
          <mxGeometry relative="1" as="geometry" />
        </mxCell>
        <mxCell id="VlY9a2Zy-96YYWf2oBim-9" style="edgeStyle=orthogonalEdgeStyle;rounded=0;orthogonalLoop=1;jettySize=auto;html=1;exitX=0;exitY=0.5;exitDx=0;exitDy=0;entryX=1;entryY=0.5;entryDx=0;entryDy=0;" edge="1" parent="1" source="VlY9a2Zy-96YYWf2oBim-1" target="VlY9a2Zy-96YYWf2oBim-7">
          <mxGeometry relative="1" as="geometry" />
        </mxCell>
        <mxCell id="VlY9a2Zy-96YYWf2oBim-1" value="session" style="rounded=0;whiteSpace=wrap;html=1;" vertex="1" parent="1">
          <mxGeometry x="310" y="600" width="90" height="40" as="geometry" />
        </mxCell>
        <mxCell id="VlY9a2Zy-96YYWf2oBim-2" value="key(主键)" style="ellipse;whiteSpace=wrap;html=1;" vertex="1" parent="1">
          <mxGeometry x="310" y="480" width="90" height="50" as="geometry" />
        </mxCell>
        <mxCell id="VlY9a2Zy-96YYWf2oBim-5" value="data(数据)" style="ellipse;whiteSpace=wrap;html=1;rounded=0;" vertex="1" parent="1">
          <mxGeometry x="490" y="595" width="85" height="50" as="geometry" />
        </mxCell>
        <mxCell id="VlY9a2Zy-96YYWf2oBim-7" value="过期时间" style="ellipse;whiteSpace=wrap;html=1;rounded=0;" vertex="1" parent="1">
          <mxGeometry x="140" y="595" width="85" height="50" as="geometry" />
        </mxCell>
      </root>
    </mxGraphModel>
  </diagram>
</mxfile>
